<svg width="82" height="17" viewBox="0 0 82 17" fill="none" xmlns="http://www.w3.org/2000/svg">
<path d="M30.7779 13.1295C29.5061 12.8105 28.4332 11.6844 28.1736 10.3951C28.0686 9.87472 28.0812 9.08937 28.2023 8.60181C28.3641 7.94938 28.6205 7.47681 29.0933 6.95786C29.8543 6.12359 30.8905 5.72964 32.1186 5.80854C33.1048 5.87161 33.8603 6.1909 34.4662 6.80034L34.7707 7.10634L34.3471 7.51443C34.1451 7.71009 33.9402 7.90242 33.7323 8.09135L33.541 8.26018L33.3043 8.02941C32.9457 7.67958 32.5655 7.50792 32.0669 7.47087C30.8041 7.37698 29.9677 8.20051 29.9754 9.52941C29.9822 10.655 30.5171 11.3759 31.4828 11.5608C32.182 11.6946 32.7593 11.5255 33.2868 11.032L33.5511 10.7851L34.7811 11.9482L34.431 12.2729C34.0021 12.6702 33.4374 12.9893 32.9112 13.1309C32.4209 13.263 31.3073 13.2622 30.7779 13.1295ZM54.1591 13.1923C53.4326 13.0916 52.1392 12.629 52.1392 12.4697C52.1392 12.4417 52.2747 12.1162 52.4406 11.7463L52.7424 11.0738L53.001 11.2101C53.6357 11.545 54.1613 11.6669 54.9788 11.6683C55.6742 11.67 55.7865 11.6533 55.9552 11.5232C56.1055 11.4072 56.1457 11.321 56.1457 11.1126C56.1457 10.7322 55.9743 10.6341 54.764 10.3213C54.1892 10.1725 53.5348 9.95504 53.3101 9.83767C52.5612 9.44627 52.2304 8.86143 52.2884 8.02998C52.3901 6.56731 53.6376 5.75622 55.6026 5.87444C56.5931 5.93439 57.7335 6.29214 57.7239 6.54016C57.7171 6.72172 57.2158 7.83965 57.1491 7.8224C57.1157 7.81392 56.8156 7.70645 56.4824 7.58371C55.4375 7.1991 54.4015 7.29214 54.2198 7.78733C54.1356 8.01584 54.2198 8.23784 54.4516 8.39452C54.5415 8.4556 55.0496 8.61567 55.581 8.75057C56.7563 9.04893 57.2898 9.29949 57.6501 9.72313C58.4389 10.6505 58.0448 12.1906 56.858 12.817C56.7093 12.8954 56.4124 13.0074 56.1984 13.0656C55.798 13.1745 54.5776 13.2503 54.1594 13.1923H54.1591ZM62.206 13.1058C60.9613 12.7302 60.0226 11.7675 59.7168 10.5523C59.5834 10.0226 59.585 9.08795 59.7201 8.54497C60.156 6.79582 61.7411 5.68722 63.6328 5.80854C64.637 5.87302 65.3904 6.20164 65.9769 6.83088L66.2462 7.11991L65.0522 8.28083L64.7767 8.00679C64.0682 7.3026 62.8243 7.2715 62.0904 7.93976C61.6594 8.3323 61.4759 8.80006 61.4754 9.51018C61.4738 10.4123 61.822 11.0639 62.484 11.3988C62.8011 11.5594 62.9492 11.5905 63.3767 11.5877C63.9786 11.5834 64.3752 11.4304 64.7912 11.0413L65.0643 10.7862L65.638 11.3326C65.9534 11.6332 66.2117 11.9157 66.212 11.9607C66.2131 12.0834 65.6224 12.5817 65.2023 12.8131C64.9987 12.9251 64.6458 13.0667 64.4184 13.1273C63.8575 13.2772 62.7368 13.2658 62.2057 13.1058H62.206ZM40.3612 12.1898L39.7282 11.2172H38.6712V13.0984H36.7182V5.9918H38.6589C40.2475 5.9918 40.666 6.01216 40.9653 6.10407C41.8277 6.36878 42.3904 6.82608 42.7007 7.51414C42.8548 7.85634 42.8783 7.99887 42.8789 8.60436C42.88 9.18807 42.8543 9.36001 42.7215 9.66375C42.5722 10.0048 42.0868 10.5512 41.7082 10.8035L41.5469 10.9109L42.218 11.9525C42.587 12.5252 42.9114 13.0328 42.9388 13.0809C42.9778 13.149 42.7717 13.1674 41.9917 13.1652L40.9943 13.1623L40.3612 12.1898ZM40.4479 9.51301C40.947 9.26131 41.0918 8.52602 40.7554 7.95362C40.5536 7.61058 40.2779 7.52461 39.3805 7.52461H38.6037V9.69938L39.395 9.67195C39.9947 9.65159 40.2497 9.61312 40.4479 9.51301ZM79.4143 12.1923L78.7785 11.2172H77.7267V13.0984H75.774V5.9918H77.7147C79.303 5.9918 79.7215 6.01216 80.0211 6.10407C80.8643 6.36312 81.4492 6.8405 81.7606 7.52461C81.9114 7.85662 81.9349 8.00057 81.9352 8.60436C81.9352 9.22455 81.915 9.34418 81.7494 9.69316C81.5758 10.0591 81.1365 10.5537 80.764 10.8032L80.6027 10.9112L81.2735 11.9525C81.6425 12.5252 81.9669 13.0328 81.9945 13.0809C82.0336 13.149 81.8267 13.168 81.0472 13.1677H80.05L79.4143 12.1923ZM79.4706 9.51018C79.836 9.28761 79.9779 9.0379 79.9779 8.61737C79.9779 8.16318 79.7975 7.81476 79.4752 7.64678C79.2926 7.55119 79.0699 7.52489 78.4508 7.52461H77.6595V9.69938L78.4508 9.67449C79.0915 9.65441 79.2855 9.62302 79.4703 9.51047L79.4706 9.51018ZM6.22818 12.455L6.21451 11.7772L3.08293 11.737L4.65077 11.7209C5.90346 11.7081 6.22517 11.7237 6.25278 11.7972C6.27191 11.8481 6.2771 12.1697 6.26453 12.5116L6.24184 13.1332L6.22818 12.455ZM45.0005 9.54497V5.9918H50.3204V7.52461H46.8135L46.8329 8.13434L46.8523 8.74406L49.9164 8.78139V10.2393L46.8523 10.2769V11.6004L50.4549 11.6377V13.0984H45.0005V9.54497ZM68.165 9.54497V5.9918H73.5521V7.52461H70.0504V8.77885H73.0806V10.2418H70.0504V11.6352H73.6193V13.0984H68.165V9.54497ZM2.20143 11.3391L2.07296 11.1824L2.22466 11.3153C2.3668 11.4398 2.4067 11.4958 2.35313 11.4958C2.34028 11.4958 2.27195 11.4251 2.20143 11.3391ZM1.70806 9.99208C1.71134 9.91092 1.7272 9.89451 1.74879 9.94994C1.7682 10.0003 1.76574 10.0602 1.74332 10.0834C1.72118 10.1066 1.70506 10.0656 1.70806 9.99208ZM1.70806 8.66855C1.71134 8.58711 1.7272 8.5707 1.74879 8.62613C1.7682 8.67647 1.76574 8.73643 1.74332 8.7599C1.72118 8.78281 1.70506 8.7418 1.70806 8.66827V8.66855ZM6.23911 5.81788C6.23911 5.43439 6.25059 5.28648 6.26426 5.48897C6.27792 5.69146 6.27792 6.00509 6.26398 6.18581C6.25032 6.36652 6.23911 6.20079 6.23938 5.81759L6.23911 5.81788ZM2.70054 5.1776C2.74919 5.15753 2.80714 5.15979 2.82955 5.18326C2.85196 5.20617 2.81233 5.22285 2.74126 5.21974C2.66282 5.21635 2.64696 5.19995 2.70054 5.17732V5.1776ZM6.93857 5.17365C7.17008 5.16007 7.54892 5.16007 7.78044 5.17365C8.01195 5.18722 7.82253 5.19825 7.3595 5.19825C6.89648 5.19825 6.70706 5.18694 6.93857 5.17365ZM11.9217 5.17365C12.247 5.16042 12.5727 5.16042 12.8981 5.17365C13.1667 5.18665 12.947 5.1974 12.4099 5.1974C11.8728 5.1974 11.6533 5.18665 11.9217 5.17336V5.17365ZM17.1096 5.17365C17.3786 5.15993 17.6482 5.15993 17.9173 5.17365C18.1288 5.18779 17.9383 5.19882 17.4939 5.19853C17.0494 5.19853 16.8761 5.18722 17.1093 5.17336L17.1096 5.17365ZM19.5674 5.17365C19.8189 5.16007 20.2127 5.16007 20.4429 5.17365C20.6725 5.18722 20.4669 5.19825 19.9853 5.19797C19.504 5.19797 19.3156 5.18665 19.5671 5.17336L19.5674 5.17365Z" fill="#A4A8AB"/>
<path d="M24.0588 8.5V0H25.0018V17H24.0588V8.5Z" fill="#26A8E0"/>
<path d="M2.51057 13.0192C1.97101 12.9276 1.24968 12.5492 0.874123 12.1606C0.499657 11.7732 0.262403 11.3233 0.10879 10.711C-0.0374434 10.1256 -0.0360768 8.51867 0.11207 7.80317C0.380757 6.50368 1.10427 5.66969 2.27496 5.30996C2.52178 5.23389 3.09195 5.19797 4.41297 5.17421L6.21424 5.14226V6.46466L4.6822 6.49576C3.46095 6.52122 3.08922 6.55119 2.84814 6.64565C2.05328 6.95617 1.7056 7.77687 1.70369 9.34616C1.70232 10.302 1.85648 10.9369 2.18339 11.3221C2.51877 11.7175 2.829 11.7746 4.64394 11.7746H6.21424V13.0981L4.54772 13.0902C3.63096 13.0857 2.71448 13.0537 2.51057 13.0192ZM7.85916 9.35351C7.20425 7.29384 6.64419 5.52235 6.6144 5.41714L6.56 5.22569L8.20055 5.2271L8.96124 7.89113C9.25042 8.90257 9.53879 9.91425 9.82634 10.9262C9.88374 11.1301 9.94606 11.2808 9.96492 11.2613C9.98405 11.2415 10.3238 9.88349 10.7201 8.24294L11.4412 5.26019L12.3883 5.24096C13.2477 5.22342 13.3387 5.23304 13.3687 5.34559C13.867 7.19514 14.9967 11.1968 15.032 11.2364C15.0582 11.2664 15.4439 9.93383 15.8886 8.27546L16.6977 5.26019L17.4881 5.24039C18.1414 5.22427 18.2748 5.23813 18.2562 5.31958C18.2442 5.37359 17.7341 7.1465 17.123 9.25962L16.0119 13.1015L14.0723 13.0639L13.261 10.1205C12.8147 8.50142 12.4293 7.20052 12.4047 7.22908C12.3801 7.25764 12.0505 8.59022 11.6722 10.1901L10.9842 13.099H9.05007L7.85916 9.35351ZM19.2107 9.16205V5.2254H20.8269V13.0987H19.2107V9.16205Z" fill="#30343E"/>
</svg>
