<svg width="465" height="281" viewBox="0 0 465 281" fill="none" xmlns="http://www.w3.org/2000/svg">
<path opacity="0.5" d="M368.646 86.4008C340.417 29.7592 420.865 57.8711 397.425 17.8791C373.984 -22.1129 179.416 14.054 142.525 38.4349C99.3451 67.228 222.118 165.484 123.339 112.437C24.5605 59.3894 0 158.904 0 191.922C0 241.567 45.8739 281 101.412 281C141.907 281 175.923 259.758 191.861 228.919C205.488 230.752 219.224 231.668 232.974 231.66C334.398 231.66 352.201 223.9 352.201 163.138C352.201 153.729 396.876 143.035 368.646 86.4008Z" fill="url(#paint0_linear)"/>
<path d="M266.962 205.147C268.096 205.26 265.953 221.87 260.847 220.742C255.742 219.613 260.88 204.532 266.962 205.147Z" fill="#2F3E93"/>
<path d="M280.853 215.466C280.717 215.466 280.582 215.44 280.456 215.388C278.902 214.747 275.748 213.078 274.914 211.847C274.219 211.68 273.5 211.637 272.791 211.719C272.516 211.744 272.243 211.658 272.032 211.482C271.82 211.305 271.687 211.052 271.662 210.777C271.638 210.503 271.723 210.23 271.899 210.018C272.076 209.806 272.329 209.674 272.604 209.649C273.824 209.54 275.96 209.527 276.641 210.69C278.01 211.869 279.568 212.807 281.25 213.465C281.473 213.557 281.657 213.723 281.771 213.935C281.884 214.147 281.921 214.392 281.874 214.628C281.827 214.864 281.7 215.077 281.514 215.229C281.327 215.382 281.094 215.465 280.853 215.465V215.466Z" fill="#EA6363"/>
<path d="M286.835 217.615L285.976 217.078C285.682 216.895 285.406 216.737 285.106 216.509L284.224 215.866C283.929 215.653 283.665 215.425 283.382 215.197C283.1 214.969 282.829 214.744 282.567 214.498C282.305 214.252 282.03 214.023 281.778 213.762C281.527 213.502 281.264 213.256 281.021 212.98C280.897 212.841 280.772 212.715 280.65 212.566C280.528 212.418 280.413 212.291 280.267 212.098L281.372 212.759L275.267 211.729C274.961 211.677 274.687 211.51 274.501 211.262C274.315 211.015 274.23 210.705 274.265 210.397C274.3 210.089 274.451 209.806 274.687 209.606C274.924 209.406 275.228 209.304 275.538 209.321L281.717 209.666H281.736C281.957 209.68 282.172 209.747 282.362 209.863C282.551 209.978 282.71 210.137 282.825 210.327C282.873 210.409 282.972 210.548 283.055 210.664C283.139 210.78 283.239 210.908 283.331 211.03C283.512 211.279 283.722 211.514 283.919 211.757C284.116 212 284.343 212.226 284.553 212.462C284.764 212.697 284.995 212.922 285.221 213.141C285.448 213.361 285.676 213.599 285.911 213.796L286.614 214.407C286.834 214.613 287.126 214.814 287.393 215.016L288.203 215.625C288.451 215.814 288.616 216.09 288.665 216.398C288.715 216.705 288.644 217.02 288.468 217.276C288.292 217.533 288.024 217.712 287.719 217.777C287.415 217.842 287.097 217.787 286.832 217.624L286.835 217.615Z" fill="#EA6363"/>
<path d="M291.436 217.224L290.812 216.953C290.594 216.843 290.309 216.68 289.992 216.503C289.648 216.313 289.386 216.137 289.049 215.928C288.39 215.516 287.653 215.025 286.875 214.474C286.096 213.924 285.279 213.328 284.455 212.672C284.253 212.525 284.024 212.304 283.812 212.123L283.65 211.976L283.629 211.959L283.619 211.95L283.766 212.085L283.728 212.059L283.653 212.006L283.506 211.898C283.487 211.898 283.506 211.928 283.506 211.937C283.613 212.01 283.359 211.91 283.235 211.882C283.054 211.845 282.892 211.8 282.692 211.772C281.94 211.653 281.181 211.579 280.421 211.551C279.725 211.522 279.136 211.517 278.727 211.519L278.103 211.529H278.046C277.501 211.527 276.979 211.311 276.592 210.929C276.204 210.546 275.982 210.026 275.973 209.482C275.964 208.937 276.169 208.411 276.543 208.016C276.918 207.62 277.433 207.387 277.977 207.367C278.043 207.367 278.111 207.367 278.174 207.367L278.91 207.424C279.366 207.466 280.012 207.53 280.794 207.641C281.717 207.764 282.631 207.944 283.531 208.181C283.785 208.244 284.072 208.345 284.352 208.438C284.721 208.571 285.077 208.74 285.412 208.943C285.521 209.009 285.648 209.09 285.732 209.155L285.87 209.275L286.155 209.533L286.261 209.643C286.408 209.79 286.529 209.937 286.703 210.096C287.379 210.729 288.108 211.37 288.805 211.943C289.502 212.515 290.163 213.047 290.729 213.47C291.006 213.676 291.296 213.899 291.465 214.015L291.978 214.376L292.579 214.698L292.639 214.73C292.958 214.898 293.199 215.182 293.311 215.524C293.423 215.866 293.398 216.238 293.241 216.561C293.084 216.885 292.807 217.135 292.469 217.258C292.131 217.38 291.758 217.367 291.43 217.22L291.436 217.224Z" fill="#EA6363"/>
<path d="M292.67 212.631L290.357 212.042L289.779 211.895C289.58 211.852 289.383 211.797 289.19 211.731L287.991 211.3C287.201 211.005 286.358 210.739 285.621 210.39C284.863 210.056 284.107 209.742 283.332 209.344L284.426 209.55C283.467 209.752 282.545 209.93 281.599 210.093C280.653 210.256 279.708 210.398 278.753 210.534C277.788 210.642 276.841 210.78 275.836 210.829C275.334 210.852 274.856 210.917 274.332 210.907H272.773C272.081 210.907 271.417 210.632 270.927 210.142C270.437 209.652 270.162 208.988 270.162 208.296C270.162 207.604 270.437 206.94 270.927 206.45C271.417 205.96 272.081 205.685 272.773 205.685C272.902 205.685 273.032 205.695 273.16 205.713L273.347 205.743L274.569 205.933C274.971 206.009 275.426 206.018 275.854 206.065C276.714 206.159 277.619 206.168 278.512 206.212C279.413 206.225 280.317 206.236 281.228 206.212C282.139 206.189 283.06 206.165 283.942 206.119L284.09 206.106C284.423 206.074 284.758 206.152 285.044 206.327C285.659 206.702 286.352 207.051 287.026 207.408C287.704 207.792 288.372 208.042 289.049 208.363L290.063 208.825C290.242 208.903 290.427 208.969 290.614 209.025L291.181 209.213L293.446 209.968H293.458C293.802 210.079 294.09 210.319 294.259 210.639C294.428 210.958 294.466 211.331 294.364 211.678C294.262 212.025 294.028 212.318 293.713 212.496C293.398 212.673 293.026 212.72 292.677 212.627L292.67 212.631Z" fill="#FF9491"/>
<path d="M278.633 220.37L276.479 219.404C275.838 219.154 275.104 218.816 274.3 218.541L273.072 218.099L271.799 217.72C271.384 217.584 270.962 217.473 270.534 217.387L269.319 217.126C268.951 217.053 268.579 217.004 268.205 216.978L267.224 216.869C266.962 216.858 266.699 216.863 266.438 216.884L265.85 216.905L265.341 216.917L264.933 216.925C264.516 216.944 264.099 216.878 263.707 216.733C263.315 216.588 262.956 216.366 262.651 216.08C262.347 215.794 262.102 215.451 261.931 215.069C261.761 214.687 261.669 214.276 261.66 213.858C261.651 213.44 261.725 213.025 261.879 212.636C262.033 212.248 262.262 211.894 262.555 211.595C262.847 211.297 263.196 211.059 263.581 210.897C263.966 210.735 264.38 210.652 264.798 210.652C264.968 210.649 265.139 210.66 265.308 210.683L266.103 210.796L267.007 210.935C267.349 210.998 267.758 211.032 268.155 211.145L269.423 211.523C269.891 211.65 270.351 211.803 270.802 211.981L272.199 212.569C272.674 212.762 273.137 212.981 273.588 213.224L274.939 213.917L276.192 214.652C277.012 215.113 277.718 215.612 278.349 216.001L280.334 217.368C280.69 217.615 280.941 217.985 281.039 218.407C281.136 218.829 281.073 219.273 280.861 219.65C280.648 220.028 280.303 220.313 279.892 220.449C279.48 220.585 279.033 220.563 278.637 220.387L278.633 220.37Z" fill="#FF9491"/>
<path d="M277.454 207.13C276.029 206.374 274.528 205.771 272.976 205.332C272.179 205.332 265.071 206.171 263.837 206.133C262.603 206.094 258.427 205.938 257.511 205.94C256.594 205.941 257.48 214.26 258.493 214.486C259.507 214.713 260.9 216.118 261.471 216.34C263.101 216.934 264.855 217.102 266.568 216.827L277.454 207.13Z" fill="#FF9491"/>
<path d="M37.0967 215.428C46.255 227.1 76.3633 231.797 94.5534 215.445C112.743 199.094 109.086 186.031 105.801 182.655C102.516 179.279 93.3264 176.092 93.7001 172.904C94.0738 169.716 101.89 158.398 99.326 152.416C95.1066 142.57 81.0947 144.117 78.885 140.311C77.0754 137.193 78.7026 124.607 77.9478 119.082C76.6826 109.83 62.8561 102.205 57.086 117.77C51.3159 133.336 58.5381 138.928 44.3262 143.664C31.5267 147.929 23.4879 198.079 37.0967 215.428Z" fill="#21877B"/>
<path d="M59.0075 237.325C58.9546 237.325 58.9018 237.319 58.8501 237.308C58.6629 237.266 58.4998 237.152 58.3967 236.99C58.2935 236.829 58.2587 236.633 58.2999 236.446C63.043 215.025 67.8377 128.079 66.7505 108.891C66.7452 108.703 66.8135 108.52 66.9409 108.381C67.0683 108.243 67.2448 108.159 67.4328 108.148C67.6209 108.138 67.8058 108.201 67.9481 108.324C68.0905 108.447 68.1791 108.621 68.1952 108.809C69.2839 128.05 64.4716 215.263 59.7122 236.757C59.6766 236.918 59.5874 237.062 59.4593 237.165C59.3313 237.268 59.172 237.325 59.0075 237.325Z" fill="white"/>
<path d="M66.877 145.038C66.8276 145.038 66.7783 145.033 66.7299 145.023C56.7698 142.937 53.7376 129.026 52.7431 124.455C52.7193 124.361 52.7147 124.263 52.7296 124.167C52.7445 124.071 52.7785 123.979 52.8296 123.897C52.8808 123.814 52.948 123.743 53.0272 123.687C53.1065 123.631 53.1963 123.592 53.2911 123.571C53.3859 123.55 53.484 123.549 53.5793 123.567C53.6747 123.585 53.7655 123.622 53.8463 123.676C53.927 123.73 53.9961 123.799 54.0495 123.88C54.1029 123.961 54.1394 124.052 54.1569 124.148C55.1044 128.492 57.9821 141.714 67.0285 143.608C67.2029 143.645 67.3572 143.746 67.462 143.89C67.5668 144.034 67.6147 144.212 67.5965 144.389C67.5782 144.567 67.4952 144.731 67.3632 144.851C67.2313 144.971 67.0597 145.038 66.8814 145.039L66.877 145.038Z" fill="white"/>
<path d="M67.2419 135.632C67.068 135.633 66.8997 135.571 66.7678 135.457C66.6358 135.344 66.5491 135.187 66.5233 135.015C66.4976 134.843 66.5347 134.668 66.6277 134.521C66.7208 134.374 66.8636 134.266 67.0301 134.215C74.7936 131.844 78.4099 121.441 78.4099 115.157C78.4099 114.965 78.4861 114.781 78.6219 114.645C78.7576 114.51 78.9417 114.433 79.1337 114.433C79.3257 114.433 79.5098 114.51 79.6455 114.645C79.7813 114.781 79.8576 114.965 79.8576 115.157C79.8576 121.872 75.9147 133.012 67.4538 135.607C67.3847 135.626 67.3133 135.634 67.2419 135.632Z" fill="white"/>
<path d="M65.1733 176.554C64.9954 176.553 64.824 176.487 64.6918 176.368C64.5596 176.249 64.4759 176.085 64.4567 175.909C64.4374 175.732 64.4839 175.554 64.5873 175.409C64.6907 175.265 64.8438 175.163 65.0173 175.124C81.5641 171.446 92.7129 151.83 93.2646 142.372C93.2803 142.183 93.3691 142.009 93.5118 141.885C93.6546 141.761 93.8401 141.698 94.0287 141.709C94.2173 141.721 94.3941 141.805 94.5212 141.945C94.6484 142.084 94.7159 142.268 94.7094 142.457C94.1297 152.3 82.5351 172.714 65.3278 176.536C65.277 176.548 65.2253 176.553 65.1733 176.554Z" fill="white"/>
<path d="M62.818 207.319C62.6397 207.317 62.4681 207.25 62.3362 207.13C62.2042 207.01 62.1211 206.846 62.1029 206.669C62.0847 206.491 62.1326 206.313 62.2374 206.169C62.3422 206.025 62.4965 205.924 62.6708 205.887C79.3161 202.309 94.6094 189.442 99.8602 174.599C99.9242 174.418 100.057 174.269 100.231 174.187C100.404 174.104 100.603 174.093 100.784 174.157C100.965 174.221 101.113 174.355 101.196 174.528C101.279 174.701 101.289 174.9 101.225 175.081C95.8158 190.375 80.0871 203.623 62.9739 207.301C62.9227 207.312 62.8704 207.318 62.818 207.319Z" fill="white"/>
<path d="M62.0941 214.858C61.9083 214.862 61.7284 214.793 61.5918 214.667C61.4552 214.541 61.3724 214.367 61.3607 214.182C61.349 213.996 61.4091 213.814 61.5287 213.671C61.6483 213.529 61.8181 213.438 62.0028 213.418C89.7558 209.843 103.344 192.312 106.795 177.1C106.814 177.004 106.851 176.914 106.905 176.833C106.959 176.753 107.029 176.684 107.11 176.631C107.192 176.578 107.283 176.542 107.378 176.524C107.474 176.507 107.572 176.51 107.667 176.531C107.761 176.553 107.851 176.593 107.929 176.65C108.008 176.706 108.075 176.778 108.125 176.861C108.175 176.944 108.208 177.037 108.222 177.133C108.236 177.229 108.231 177.327 108.206 177.42C104.64 193.111 90.6797 211.183 62.1882 214.854C62.1569 214.857 62.1255 214.859 62.0941 214.858Z" fill="white"/>
<path d="M37.0966 215.428C25.3269 215.891 12.4053 207.551 11.702 198.409C10.9988 189.267 14.7916 187.176 13.5307 183.482C11.471 177.406 3.05129 174.147 2.84091 164.519C2.7747 161.465 6.49833 158.974 6.49833 153.402C6.49833 147.776 3.70304 143.094 2.84091 134.555C1.85667 124.863 11.983 119.927 19.7187 129.35C28.6622 140.244 37.2011 139.796 42.3621 142.416C51.7867 147.212 50.52 161.137 53.6139 163.247C56.7079 165.357 67.2565 163.394 71.7569 175.483C76.2573 187.572 69.2662 214.163 37.0966 215.428Z" fill="#32A59A"/>
<path d="M57.0861 234.996C56.9105 234.996 56.741 234.932 56.6091 234.817C56.4773 234.701 56.3921 234.541 56.3696 234.367C52.5121 204.698 36.3978 168.618 8.47423 127.124C7.98873 126.402 7.56796 125.779 7.22517 125.262C7.16715 125.183 7.12573 125.093 7.10341 124.998C7.08109 124.902 7.07835 124.803 7.09533 124.707C7.11231 124.611 7.14868 124.519 7.20223 124.437C7.25577 124.355 7.32536 124.284 7.40683 124.23C7.4883 124.176 7.57996 124.139 7.67622 124.121C7.77247 124.103 7.87137 124.105 7.96688 124.126C8.0624 124.148 8.15255 124.188 8.23192 124.246C8.31129 124.303 8.37819 124.376 8.42861 124.46C8.77141 124.975 9.18925 125.596 9.67475 126.315C37.7264 167.997 53.9185 204.289 57.8055 234.18C57.8179 234.274 57.8115 234.37 57.7869 234.462C57.7622 234.553 57.7197 234.639 57.6618 234.715C57.6038 234.79 57.5316 234.853 57.4492 234.9C57.3668 234.948 57.2759 234.978 57.1817 234.991C57.1499 234.994 57.118 234.996 57.0861 234.996Z" fill="white"/>
<path d="M21.2311 146.394C12.3435 146.394 2.71734 135.144 0.920988 132.112C0.869305 132.03 0.834585 131.938 0.81889 131.843C0.803195 131.747 0.806848 131.649 0.829621 131.555C0.852393 131.461 0.89383 131.372 0.951474 131.295C1.00912 131.217 1.08178 131.151 1.16519 131.102C1.2486 131.053 1.34104 131.021 1.43704 131.008C1.53304 130.995 1.63065 131.002 1.72408 131.027C1.8175 131.053 1.90484 131.097 1.98094 131.157C2.05703 131.217 2.12033 131.291 2.16708 131.376C3.80748 134.146 13.0835 144.949 21.2311 144.949C21.2507 144.951 21.2703 144.951 21.2899 144.949C21.4819 144.949 21.666 145.026 21.8018 145.161C21.9375 145.297 22.0138 145.481 22.0138 145.673C22.0138 145.865 21.9375 146.049 21.8018 146.185C21.666 146.321 21.4819 146.397 21.2899 146.397L21.2311 146.394Z" fill="white"/>
<path d="M32.5637 169.747C22.8214 169.747 6.94697 157.511 3.6441 149.984C3.56606 149.808 3.56098 149.609 3.62996 149.43C3.69894 149.25 3.83632 149.106 4.01191 149.028C4.18749 148.95 4.38692 148.944 4.56626 149.013C4.7456 149.082 4.89019 149.22 4.96823 149.395C8.25786 156.899 25.5313 169.914 34.2218 168.137C34.316 168.115 34.4139 168.111 34.5094 168.127C34.605 168.143 34.6964 168.178 34.7782 168.23C34.8601 168.282 34.9306 168.35 34.9857 168.429C35.0408 168.509 35.0794 168.599 35.0991 168.694C35.1188 168.789 35.1193 168.887 35.1004 168.982C35.0816 169.077 35.0439 169.167 34.9895 169.247C34.9351 169.327 34.8652 169.396 34.7839 169.449C34.7025 169.501 34.6115 169.537 34.516 169.554C33.8735 169.684 33.2194 169.749 32.5637 169.747Z" fill="white"/>
<path d="M36.9731 174.722C36.8265 174.722 36.6835 174.677 36.5629 174.594C36.4422 174.511 36.3497 174.393 36.2976 174.256C36.2455 174.119 36.2361 173.969 36.2708 173.827C36.3055 173.685 36.3827 173.556 36.492 173.458C44.2644 166.544 44.0026 149.969 41.6736 142.632C41.6151 142.449 41.6317 142.25 41.7197 142.08C41.8077 141.909 41.9599 141.78 42.1429 141.721C42.3259 141.663 42.5247 141.679 42.6955 141.768C42.8662 141.856 42.9951 142.008 43.0536 142.191C45.484 149.841 45.693 167.201 37.4542 174.535C37.3224 174.655 37.151 174.721 36.9731 174.722Z" fill="white"/>
<path d="M33.5422 180.795C17.8002 180.795 3.84432 166.239 1.73313 162.502C1.68223 162.42 1.64856 162.327 1.63413 162.231C1.61969 162.135 1.62476 162.037 1.64908 161.943C1.6734 161.848 1.71644 161.76 1.77564 161.683C1.83485 161.606 1.90901 161.541 1.99367 161.494C2.07833 161.446 2.17176 161.415 2.2684 161.404C2.36504 161.393 2.46288 161.402 2.5561 161.43C2.64933 161.457 2.73602 161.504 2.81099 161.566C2.88596 161.628 2.94769 161.704 2.99247 161.79C5.2802 165.841 22.0506 183.136 39.3564 178.608C39.5387 178.569 39.7292 178.601 39.888 178.699C40.0469 178.796 40.162 178.952 40.2092 179.132C40.2564 179.312 40.2322 179.504 40.1416 179.667C40.051 179.83 39.9009 179.952 39.7228 180.007C37.7049 180.534 35.6277 180.799 33.5422 180.795Z" fill="white"/>
<path d="M34.3632 187.578C23.2629 187.424 12.6354 183.059 4.63147 175.367C4.4912 175.236 4.40875 175.054 4.40227 174.862C4.39579 174.67 4.4658 174.484 4.5969 174.344C4.728 174.203 4.90944 174.121 5.10133 174.114C5.29322 174.108 5.47985 174.178 5.62012 174.309C10.4233 178.974 16.2807 182.412 22.6956 184.331C29.1105 186.25 35.8936 186.594 42.4696 185.333C42.657 185.299 42.8504 185.34 43.0076 185.448C43.1648 185.555 43.2733 185.72 43.3095 185.907C43.3457 186.094 43.3067 186.288 43.201 186.447C43.0953 186.605 42.9313 186.716 42.7447 186.754C39.9837 187.296 37.1769 187.572 34.3632 187.578Z" fill="white"/>
<path d="M48.0323 200.143C47.8643 200.143 47.7018 200.083 47.5726 199.976C47.4435 199.869 47.3558 199.72 47.3245 199.554C47.2931 199.389 47.3202 199.219 47.401 199.071C47.4819 198.924 47.6114 198.809 47.7675 198.747C63.5433 192.568 60.0977 167.968 59.6534 165.183C59.6384 165.089 59.6421 164.993 59.6642 164.901C59.6863 164.808 59.7264 164.721 59.7822 164.644C59.838 164.567 59.9084 164.502 59.9895 164.452C60.0705 164.402 60.1605 164.369 60.2544 164.354C60.3483 164.339 60.4442 164.343 60.5367 164.365C60.6292 164.387 60.7164 164.427 60.7934 164.483C60.8704 164.539 60.9356 164.609 60.9854 164.69C61.0352 164.771 61.0685 164.861 61.0834 164.955C61.5469 167.858 65.1263 193.508 48.2956 200.093C48.2117 200.126 48.1224 200.143 48.0323 200.143Z" fill="white"/>
<path d="M37.3188 211.341C31.8975 211.432 26.5242 210.312 21.5906 208.063C16.6571 205.814 12.2876 202.492 8.80085 198.34C8.68488 198.191 8.63132 198.003 8.65152 197.816C8.67171 197.629 8.76407 197.457 8.90901 197.337C9.05394 197.217 9.24006 197.158 9.4278 197.172C9.61554 197.187 9.79012 197.274 9.91454 197.416C14.3856 202.806 27.3381 214.613 50.979 207.861C51.0704 207.835 51.1661 207.827 51.2605 207.838C51.355 207.849 51.4464 207.878 51.5295 207.924C51.6126 207.97 51.6859 208.032 51.745 208.107C51.8042 208.181 51.8481 208.266 51.8743 208.358C51.9004 208.449 51.9084 208.545 51.8976 208.639C51.8868 208.734 51.8575 208.825 51.8114 208.908C51.7653 208.991 51.7033 209.065 51.6289 209.124C51.5544 209.183 51.4691 209.227 51.3777 209.253C46.8117 210.601 42.0795 211.304 37.3188 211.341Z" fill="white"/>
<path d="M340.125 36.1547H74.4406V176.604H340.125V36.1547Z" fill="url(#paint1_linear)"/>
<path d="M137.404 159.25C137.212 159.25 137.028 159.173 136.892 159.038C136.756 158.902 136.68 158.718 136.68 158.526V56.1293C136.68 55.9374 136.756 55.7532 136.892 55.6175C137.028 55.4817 137.212 55.4055 137.404 55.4055C137.596 55.4055 137.78 55.4817 137.916 55.6175C138.051 55.7532 138.128 55.9374 138.128 56.1293V158.526C138.128 158.718 138.051 158.902 137.916 159.038C137.78 159.173 137.596 159.25 137.404 159.25Z" fill="white"/>
<path d="M207.282 159.25C207.09 159.25 206.906 159.173 206.77 159.038C206.635 158.902 206.558 158.718 206.558 158.526V56.1293C206.558 55.9374 206.635 55.7532 206.77 55.6175C206.906 55.4817 207.09 55.4055 207.282 55.4055C207.474 55.4055 207.658 55.4817 207.794 55.6175C207.93 55.7532 208.006 55.9374 208.006 56.1293V158.526C208.006 158.718 207.93 158.902 207.794 159.038C207.658 159.173 207.474 159.25 207.282 159.25Z" fill="white"/>
<path d="M277.16 159.25C276.968 159.25 276.784 159.173 276.648 159.038C276.513 158.902 276.436 158.718 276.436 158.526V56.1293C276.436 55.9374 276.513 55.7532 276.648 55.6175C276.784 55.4817 276.968 55.4055 277.16 55.4055C277.352 55.4055 277.536 55.4817 277.672 55.6175C277.808 55.7532 277.884 55.9374 277.884 56.1293V158.526C277.884 158.718 277.808 158.902 277.672 159.038C277.536 159.173 277.352 159.25 277.16 159.25Z" fill="white"/>
<path d="M309.012 87.135H101.211C101.019 87.135 100.835 87.0588 100.699 86.923C100.563 86.7873 100.487 86.6032 100.487 86.4112C100.487 86.2192 100.563 86.0351 100.699 85.8994C100.835 85.7636 101.019 85.6874 101.211 85.6874H309.012C309.204 85.6874 309.388 85.7636 309.524 85.8994C309.66 86.0351 309.736 86.2192 309.736 86.4112C309.736 86.6032 309.66 86.7873 309.524 86.923C309.388 87.0588 309.204 87.135 309.012 87.135Z" fill="white"/>
<path d="M309.012 129.515H101.211C101.019 129.515 100.835 129.439 100.699 129.303C100.563 129.167 100.487 128.983 100.487 128.791C100.487 128.599 100.563 128.415 100.699 128.279C100.835 128.143 101.019 128.067 101.211 128.067H309.012C309.204 128.067 309.388 128.143 309.524 128.279C309.66 128.415 309.736 128.599 309.736 128.791C309.736 128.983 309.66 129.167 309.524 129.303C309.388 129.439 309.204 129.515 309.012 129.515Z" fill="white"/>
<path d="M125.28 61.9745H86.2087C85.3517 61.9179 84.5483 61.5375 83.9613 60.9106C83.3744 60.2836 83.0479 59.4569 83.0479 58.598C83.0479 57.7392 83.3744 56.9125 83.9613 56.2855C84.5483 55.6586 85.3517 55.2782 86.2087 55.2216H125.28C125.742 55.1911 126.205 55.2558 126.641 55.4116C127.078 55.5675 127.477 55.8112 127.815 56.1278C128.153 56.4443 128.423 56.8269 128.607 57.2518C128.791 57.6767 128.886 58.1349 128.886 58.598C128.886 59.0612 128.791 59.5194 128.607 59.9443C128.423 60.3692 128.153 60.7518 127.815 61.0683C127.477 61.3849 127.078 61.6286 126.641 61.7845C126.205 61.9403 125.742 62.005 125.28 61.9745Z" fill="white"/>
<path d="M125.28 77.5707H96.6588C96.1966 77.6013 95.7332 77.5366 95.297 77.3807C94.8609 77.2249 94.4614 76.9811 94.1233 76.6646C93.7852 76.3481 93.5156 75.9655 93.3314 75.5406C93.1471 75.1157 93.052 74.6575 93.052 74.1943C93.052 73.7312 93.1471 73.2729 93.3314 72.848C93.5156 72.4231 93.7852 72.0405 94.1233 71.724C94.4614 71.4075 94.8609 71.1638 95.297 71.0079C95.7332 70.852 96.1966 70.7873 96.6588 70.8179H125.28C125.742 70.7873 126.205 70.852 126.642 71.0079C127.078 71.1638 127.477 71.4075 127.815 71.724C128.153 72.0405 128.423 72.4231 128.607 72.848C128.791 73.2729 128.887 73.7312 128.887 74.1943C128.887 74.6575 128.791 75.1157 128.607 75.5406C128.423 75.9655 128.153 76.3481 127.815 76.6646C127.477 76.9811 127.078 77.2249 126.642 77.3807C126.205 77.5366 125.742 77.6013 125.28 77.5707Z" fill="white"/>
<path d="M208.377 220.421L260.846 220.736C259.881 217.287 259.906 207.235 266.96 205.141L215.921 198.197C215.921 198.197 204.31 170.993 202.358 167.415L185.382 158.053C180.362 160.931 196.872 200.188 203.161 216.798C203.562 217.858 204.275 218.772 205.206 219.419C206.137 220.066 207.243 220.415 208.377 220.421Z" fill="#404AA9"/>
<path d="M203.352 169.45V169.438L185.594 167.958C188.92 181.402 198.664 204.907 203.169 216.802C203.57 217.861 204.284 218.774 205.214 219.42C206.145 220.066 207.25 220.414 208.383 220.42C208.383 220.42 209.455 183.188 203.352 169.45Z" fill="#2F3E93"/>
<path d="M200.257 237.016C203.347 221.314 212.748 177.419 199.252 162.803C192.761 155.772 179.429 151.66 179.429 151.66L159.521 149.291C159.521 149.291 138.429 156.387 132.714 161.118C126.998 165.849 112.43 189.685 112.43 189.685L143.87 193.617C145.553 201.381 143.221 219.805 140.304 237.018L200.257 237.016Z" fill="#404AA9"/>
<path d="M176.893 143.977L179.506 144.942L182.118 149.289L176.29 149.598L176.893 143.977Z" fill="#404AA9"/>
<path d="M155.748 149.294C155.748 149.294 174.139 143.936 183.123 149.294L187.831 169.26L192.782 205.187V225.794H168.892C168.892 225.794 170.586 209.419 167.836 196.874C166.568 191.059 155.748 149.294 155.748 149.294Z" fill="white"/>
<path d="M164.485 122.066C164.485 122.066 163.2 136.718 156.246 146.607C156.246 156.526 175.255 161.545 179.145 155.319C179.448 154.763 179.63 154.15 179.679 153.519C179.728 152.888 179.644 152.254 179.432 151.658C178.211 147.514 177.579 143.219 177.555 138.898L164.485 122.066Z" fill="#FF9491"/>
<path d="M177.552 138.9L164.485 122.066C164.258 124.232 163.914 126.384 163.455 128.513C163.695 132.69 165.095 145.873 178.741 149.294C177.992 145.879 177.594 142.396 177.552 138.9Z" fill="#EA6363"/>
<path d="M169.478 186.982C166.194 171.649 157.53 151.17 160.671 138.073C152.138 145.804 149.285 165.043 149.285 165.043L160.025 169.989L155.759 175.055C155.759 175.055 168.117 204.935 169.328 220.398C169.809 216.302 170.232 212.59 170.59 209.419C171.433 201.929 171.057 194.352 169.478 186.982Z" fill="#759BD4"/>
<path d="M177.959 144.888L177.784 143.26C183.415 144.792 198.234 163.019 198.234 163.019L190.569 172.027L196.576 174.822C196.576 174.822 193.354 211.823 197.244 227.424C184.901 212.36 186.136 151.955 177.959 144.888Z" fill="#759BD4"/>
<path d="M185.002 141.585C189.308 140.135 206.669 90.3982 173.259 91.1618C141.875 91.8797 163.639 148.773 185.002 141.585Z" fill="#FF9491"/>
<path d="M192.98 118.884C193.625 114.249 193.457 109.537 192.483 104.96L174.877 110.832C178.889 115.862 184.299 119.11 192.98 118.884Z" fill="#EA6363"/>
<path d="M158.366 116.509C158.366 116.509 146.389 99.149 157.992 92.4329C162.069 90.079 166.181 94.2396 166.181 94.2396C166.181 94.2396 168.093 84.7517 176.71 85.8375C190.791 87.6118 197.343 109.168 205.929 107.161C201.662 119.54 183.615 111.172 183.615 111.172L183.21 114.07C183.21 114.07 174.47 115.022 171.702 104.928C170.525 110.795 168.075 116.333 164.524 121.15L158.366 116.509Z" fill="#002951"/>
<path d="M165.377 123.654C167.021 121.383 166.511 118.209 164.24 116.566C161.969 114.923 158.796 115.432 157.152 117.704C155.509 119.975 156.018 123.148 158.29 124.791C160.561 126.434 163.734 125.925 165.377 123.654Z" fill="#FF9491"/>
<path d="M163.584 120.165C163.483 119.707 163.248 119.288 162.909 118.963C162.57 118.638 162.142 118.421 161.68 118.339C161.217 118.257 160.741 118.314 160.311 118.503C159.881 118.692 159.517 119.004 159.264 119.4C159.011 119.796 158.882 120.257 158.892 120.727C158.901 121.197 159.05 121.653 159.319 122.038C159.588 122.422 159.965 122.719 160.403 122.89C160.841 123.06 161.319 123.097 161.778 122.996C162.392 122.86 162.928 122.486 163.267 121.955C163.606 121.424 163.72 120.78 163.584 120.165Z" fill="#EA6363"/>
<path d="M166.224 97.4719C166.177 97.4717 166.131 97.4673 166.085 97.4586C165.897 97.4219 165.731 97.3122 165.623 97.1534C165.516 96.9946 165.476 96.7996 165.511 96.6112C165.813 95.228 165.652 93.7839 165.052 92.5014C164.452 91.2189 163.447 90.1693 162.192 89.5141C162.107 89.4668 162.032 89.4027 161.973 89.3258C161.913 89.2489 161.869 89.1607 161.844 89.0664C161.819 88.9722 161.813 88.8739 161.827 88.7774C161.841 88.6809 161.875 88.5883 161.925 88.505C161.976 88.4217 162.043 88.3495 162.122 88.2928C162.201 88.236 162.291 88.1958 162.386 88.1746C162.482 88.1535 162.58 88.1517 162.676 88.1695C162.772 88.1873 162.863 88.2243 162.944 88.2783C164.456 89.0823 165.664 90.3584 166.384 91.9124C167.104 93.4664 167.296 95.213 166.931 96.8863C166.899 97.0506 166.811 97.1987 166.682 97.3054C166.553 97.4121 166.391 97.4709 166.224 97.4719Z" fill="#002951"/>
<path d="M179.204 210.857C181.558 211.169 184.511 220.624 181.012 225.863H167.024C167.024 225.863 171.003 209.778 179.204 210.857Z" fill="#2F3E93"/>
<path d="M279.533 200.115L294.435 200.248V200.274H279.533V200.115Z" fill="#759BD4"/>
<path d="M279.533 199.581L294.435 199.714V200.248L279.533 200.115V199.581Z" fill="#749AD3"/>
<path d="M279.533 199.046L294.435 199.178V199.712L279.533 199.58V199.046Z" fill="#7499D3"/>
<path d="M279.533 198.512L294.435 198.644V199.178L279.533 199.046V198.512Z" fill="#7398D2"/>
<path d="M279.533 197.978L294.435 198.11V198.644L279.533 198.512V197.978Z" fill="#7297D2"/>
<path d="M279.533 197.442L294.435 197.575V198.109L279.533 197.976V197.442Z" fill="#7296D1"/>
<path d="M279.533 196.908L294.435 197.041V197.575L279.533 197.442V196.908Z" fill="#7195D1"/>
<path d="M279.533 196.37L294.435 196.502V197.036L279.533 196.904V196.37Z" fill="#7094D0"/>
<path d="M279.533 195.84L294.435 195.973V196.507L279.533 196.374V195.84Z" fill="#7093D0"/>
<path d="M279.533 195.312L294.435 195.444V195.978L279.533 195.846V195.312Z" fill="#6F92CF"/>
<path d="M279.533 194.77L294.435 194.903V195.437L279.533 195.305V194.77Z" fill="#6E91CF"/>
<path d="M279.533 194.236L294.435 194.369V194.903L279.533 194.771V194.236Z" fill="#6E90CE"/>
<path d="M279.533 193.701L294.435 193.833V194.367L279.533 194.235V193.701Z" fill="#6D8FCE"/>
<path d="M279.533 193.167L294.435 193.299V193.833L279.533 193.701V193.167Z" fill="#6C8ECD"/>
<path d="M279.533 192.633L294.435 192.765V193.299L279.533 193.167V192.633Z" fill="#6C8DCC"/>
<path d="M279.533 192.099L294.435 192.231V192.765L279.533 192.633V192.099Z" fill="#6B8CCC"/>
<path d="M279.533 191.563L294.435 191.696V192.23L279.533 192.097V191.563Z" fill="#6A8BCB"/>
<path d="M279.533 191.029L294.435 191.162V191.696L279.533 191.563V191.029Z" fill="#6A8ACB"/>
<path d="M279.533 190.495L294.435 190.628V191.162L279.533 191.029V190.495Z" fill="#6989CA"/>
<path d="M279.533 189.96L294.435 190.092V190.626L279.533 190.494V189.96Z" fill="#6888CA"/>
<path d="M279.533 189.424L294.435 189.557V190.091L279.533 189.958V189.424Z" fill="#6887C9"/>
<path d="M279.533 188.893L294.435 189.025V189.559L279.533 189.427V188.893Z" fill="#6786C9"/>
<path d="M279.533 188.359L294.435 188.491V189.025L279.533 188.893V188.359Z" fill="#6685C8"/>
<path d="M279.533 187.823L294.435 187.956V188.49L279.533 188.358V187.823Z" fill="#6684C8"/>
<path d="M279.533 187.289L294.435 187.422V187.956L279.533 187.823V187.289Z" fill="#6583C7"/>
<path d="M279.533 186.755L294.435 186.888V187.422L279.533 187.289V186.755Z" fill="#6482C7"/>
<path d="M279.533 186.22L294.435 186.352V186.886L279.533 186.754V186.22Z" fill="#6481C6"/>
<path d="M279.533 185.686L294.435 185.818V186.352L279.533 186.22V185.686Z" fill="#6380C5"/>
<path d="M279.533 185.152L294.435 185.284V185.818L279.533 185.686V185.152Z" fill="#627FC5"/>
<path d="M279.533 184.618L294.435 184.75V185.284L279.533 185.152V184.618Z" fill="#627EC4"/>
<path d="M279.533 184.082L294.435 184.215V184.749L279.533 184.616V184.082Z" fill="#617DC4"/>
<path d="M279.533 183.548L294.435 183.681V184.215L279.533 184.082V183.548Z" fill="#607CC3"/>
<path d="M279.533 183.014L294.435 183.147V183.681L279.533 183.548V183.014Z" fill="#607BC3"/>
<path d="M279.533 182.479L294.435 182.611V183.145L279.533 183.013V182.479Z" fill="#5F7AC2"/>
<path d="M279.533 181.944L294.435 182.077V182.611L279.533 182.478V181.944Z" fill="#5E79C2"/>
<path d="M279.533 181.41L294.435 181.543V182.077L279.533 181.944V181.41Z" fill="#5E78C1"/>
<path d="M279.533 180.876L294.435 181.009V181.543L279.533 181.409V180.876Z" fill="#5D77C1"/>
<path d="M279.533 180.341L294.435 180.473V181.007L279.533 180.875V180.341Z" fill="#5C76C0"/>
<path d="M279.533 179.807L294.435 179.939V180.473L279.533 180.341V179.807Z" fill="#5C75C0"/>
<path d="M279.533 179.273L294.435 179.405V179.939L279.533 179.807V179.273Z" fill="#5B74BF"/>
<path d="M279.533 178.737L294.435 178.87V179.404L279.533 179.271V178.737Z" fill="#5B73BF"/>
<path d="M279.533 178.203L294.435 178.336V178.87L279.533 178.737V178.203Z" fill="#5A71BE"/>
<path d="M279.533 177.669L294.435 177.802V178.336L279.533 178.203V177.669Z" fill="#5970BD"/>
<path d="M279.533 177.135L294.435 177.267V177.802L279.533 177.669V177.135Z" fill="#596FBD"/>
<path d="M279.533 176.6L294.435 176.732V177.266L279.533 177.134V176.6Z" fill="#586EBC"/>
<path d="M279.533 176.066L294.435 176.198V176.732L279.533 176.6V176.066Z" fill="#576DBC"/>
<path d="M279.533 175.534L294.435 175.667V176.201L279.533 176.068V175.534Z" fill="#576CBB"/>
<path d="M279.533 174.996L294.435 175.128V175.667L279.533 175.534V174.996Z" fill="#566BBB"/>
<path d="M279.533 174.462L294.435 174.594V175.128L279.533 174.996V174.462Z" fill="#556ABA"/>
<path d="M279.533 173.928L294.435 174.06V174.594L279.533 174.462V173.928Z" fill="#5569BA"/>
<path d="M279.533 173.394L294.435 173.526V174.06L279.533 173.928V173.394Z" fill="#5468B9"/>
<path d="M279.533 172.858L294.435 172.991V173.525L279.533 173.392V172.858Z" fill="#5367B9"/>
<path d="M279.533 172.324L294.435 172.457V172.991L279.533 172.858V172.324Z" fill="#5366B8"/>
<path d="M279.533 171.79L294.435 171.923V172.457L279.533 172.324V171.79Z" fill="#5265B8"/>
<path d="M279.533 171.255L294.435 171.387V171.921L279.533 171.789V171.255Z" fill="#5164B7"/>
<path d="M279.533 170.721L294.435 170.853V171.387L279.533 171.255V170.721Z" fill="#5163B6"/>
<path d="M279.533 170.187L294.435 170.319V170.853L279.533 170.721V170.187Z" fill="#5062B6"/>
<path d="M279.533 169.647L294.435 169.779V170.313L279.533 170.181V169.647Z" fill="#4F61B5"/>
<path d="M279.533 169.117L294.435 169.249V169.783L279.533 169.651V169.117Z" fill="#4F60B5"/>
<path d="M279.533 168.589L294.435 168.721V169.255L279.533 169.123V168.589Z" fill="#4E5FB4"/>
<path d="M279.533 168.049L294.435 168.181V168.715L279.533 168.583V168.049Z" fill="#4D5EB4"/>
<path d="M279.533 167.515L294.435 167.647V168.181L279.533 168.049V167.515Z" fill="#4D5DB3"/>
<path d="M279.533 166.981L294.435 167.113V167.647L279.533 167.515V166.981Z" fill="#4C5CB3"/>
<path d="M279.533 166.447L294.435 166.579V167.113L279.533 166.981V166.447Z" fill="#4B5BB2"/>
<path d="M279.533 165.913L294.435 166.045V166.579L279.533 166.447V165.913Z" fill="#4B5AB2"/>
<path d="M279.533 165.377L294.435 165.51V166.044L279.533 165.911V165.377Z" fill="#4A59B1"/>
<path d="M279.533 164.843L294.435 164.976V165.51L279.533 165.377V164.843Z" fill="#4958B1"/>
<path d="M279.533 164.309L294.435 164.441V164.975L279.533 164.843V164.309Z" fill="#4957B0"/>
<path d="M279.533 163.774L294.435 163.906V164.44L279.533 164.308V163.774Z" fill="#4856AF"/>
<path d="M279.533 163.239L294.435 163.372V163.906L279.533 163.774V163.239Z" fill="#4755AF"/>
<path d="M279.533 162.701L294.435 162.833V163.367L279.533 163.235V162.701Z" fill="#4754AE"/>
<path d="M279.533 162.17L294.435 162.302V162.836L279.533 162.704V162.17Z" fill="#4653AE"/>
<path d="M279.533 161.636L294.435 161.768V162.302L279.533 162.17V161.636Z" fill="#4552AD"/>
<path d="M279.533 161.102L294.435 161.234V161.768L279.533 161.636V161.102Z" fill="#4551AD"/>
<path d="M279.533 160.568L294.435 160.7V161.234L279.533 161.102V160.568Z" fill="#4450AC"/>
<path d="M279.533 160.032L294.435 160.165V160.699L279.533 160.566V160.032Z" fill="#434FAC"/>
<path d="M279.533 159.498L294.435 159.631V160.165L279.533 160.032V159.498Z" fill="#434EAB"/>
<path d="M279.533 158.964L294.435 159.096V159.631L279.533 159.498V158.964Z" fill="#424DAB"/>
<path d="M279.533 158.43L294.435 158.562V159.097L279.533 158.964V158.43Z" fill="#414CAA"/>
<path d="M279.533 157.895L294.435 158.027V158.561L279.533 158.429V157.895Z" fill="#414BAA"/>
<path d="M279.533 157.361L294.435 157.493V158.027L279.533 157.895V157.361Z" fill="#404AA9"/>
<path d="M294.435 157.493L279.533 157.361V157.25H294.435V157.493Z" fill="#404AA9"/>
<path d="M173.268 222.12C168.14 220.712 162.261 223.546 158.341 224.411C154.42 225.276 152.191 215.515 152.191 215.515L175.657 212.682L173.268 222.12Z" fill="#EA6363"/>
<path d="M149.878 184.804L131.93 181.602C131.93 181.602 132.846 186.32 134.248 192.417L143.868 193.62C144.951 198.613 144.372 208.019 143.045 218.673C144.141 219.75 151.969 204.273 149.878 184.804Z" fill="#2F3E93"/>
<path d="M263.681 188.285C263.681 188.008 263.599 187.738 263.445 187.507C263.291 187.277 263.072 187.097 262.816 186.991C262.56 186.885 262.278 186.858 262.007 186.912C261.735 186.966 261.485 187.1 261.29 187.296C261.094 187.492 260.96 187.741 260.907 188.013C260.853 188.285 260.881 188.567 260.987 188.822C261.093 189.078 261.273 189.297 261.503 189.451C261.734 189.604 262.005 189.686 262.282 189.686C262.466 189.686 262.648 189.65 262.818 189.579C262.988 189.509 263.142 189.406 263.272 189.276C263.402 189.146 263.505 188.991 263.575 188.821C263.645 188.651 263.681 188.469 263.681 188.285Z" fill="#404AA9"/>
<path d="M188.29 223.777L188.184 223.718C188.094 223.664 188.001 223.615 187.906 223.571C187.719 223.487 187.353 223.313 186.919 223.141C185.852 222.711 184.755 222.36 183.635 222.094C183.065 221.957 182.486 221.856 181.902 221.791C181.44 221.732 180.973 221.718 180.508 221.748C180.346 221.751 180.185 221.77 180.028 221.805C179.918 221.816 179.811 221.84 179.707 221.878L179.467 221.953L179.351 221.988C179.062 222.085 178.757 222.123 178.453 222.1C178.149 222.078 177.853 221.995 177.582 221.856C177.31 221.718 177.07 221.526 176.873 221.293C176.677 221.06 176.529 220.79 176.438 220.5C176.347 220.209 176.315 219.903 176.344 219.599C176.373 219.296 176.463 219.002 176.607 218.733C176.751 218.465 176.948 218.228 177.185 218.037C177.422 217.845 177.695 217.703 177.987 217.618C178.124 217.577 178.265 217.547 178.407 217.53L179.078 217.454C179.322 217.426 179.568 217.419 179.813 217.432C180.111 217.429 180.409 217.449 180.705 217.49C181.387 217.568 182.061 217.707 182.719 217.904C183.422 218.107 184.112 218.353 184.786 218.639C186.002 219.157 187.177 219.766 188.301 220.461C188.764 220.746 189.125 220.992 189.438 221.215C189.597 221.326 189.664 221.389 189.732 221.441L189.826 221.517C190.095 221.732 190.273 222.039 190.325 222.379C190.377 222.718 190.299 223.065 190.108 223.35C189.916 223.635 189.624 223.838 189.29 223.917C188.955 223.997 188.603 223.948 188.304 223.78L188.29 223.777Z" fill="#EA6363"/>
<path d="M179.381 217.836C174.735 218.183 174.767 221.707 168.688 219.331C170.339 220.431 172.051 221.437 173.815 222.344C175.517 222.903 180.424 221.792 180.424 221.792L179.381 217.836Z" fill="#EA6363"/>
<path d="M177.851 225.784C175.464 221.651 181.493 215.515 189.935 215.515C193.08 215.686 196.114 216.74 198.687 218.557C201.261 220.373 203.27 222.878 204.485 225.784H177.851Z" fill="#759BD4"/>
<path d="M200.556 224.588C200.35 224.587 200.15 224.524 199.982 224.407C199.813 224.289 199.685 224.123 199.614 223.93C198.957 222.515 197.869 221.344 196.506 220.584C196.284 220.446 196.125 220.227 196.062 219.974C196 219.721 196.038 219.454 196.168 219.228C196.299 219.002 196.513 218.836 196.764 218.765C197.015 218.694 197.284 218.723 197.513 218.847C199.287 219.835 200.687 221.379 201.499 223.24C201.59 223.49 201.577 223.767 201.465 224.008C201.352 224.25 201.148 224.436 200.897 224.527C200.788 224.567 200.672 224.587 200.556 224.588Z" fill="#404AA9"/>
<path d="M199.555 217.729L199.346 217.691C199.199 217.655 199.052 217.646 198.721 217.571C198.363 217.499 198.008 217.406 197.66 217.293C197.275 217.165 196.841 217.029 196.388 216.839C195.4 216.404 194.441 215.909 193.514 215.356L192.804 214.967C192.639 214.872 192.462 214.796 192.279 214.744H192.264H192.257C191.959 214.634 191.717 214.412 191.58 214.126C191.444 213.84 191.425 213.512 191.527 213.212C191.629 212.912 191.845 212.664 192.127 212.52C192.41 212.377 192.737 212.349 193.04 212.444C193.342 212.538 193.596 212.747 193.747 213.026C193.897 213.305 193.933 213.632 193.846 213.937C193.759 214.241 193.557 214.5 193.282 214.658C193.007 214.816 192.681 214.86 192.374 214.78H192.354L192.246 214.763C192.246 214.782 192.337 214.798 192.305 214.801L191.995 214.825L191.214 214.92C190.119 215.067 188.976 215.312 187.917 215.541L185.012 216.238L182.966 216.806L182.201 217.04C181.824 217.155 181.427 217.188 181.036 217.137C180.645 217.085 180.27 216.951 179.935 216.742C179.601 216.533 179.316 216.255 179.098 215.926C178.88 215.598 178.735 215.226 178.673 214.837C178.611 214.448 178.633 214.05 178.738 213.67C178.843 213.29 179.028 212.937 179.281 212.634C179.534 212.332 179.849 212.088 180.204 211.917C180.56 211.747 180.948 211.655 181.342 211.647H181.371L184.374 211.607L187.44 211.534C188.568 211.507 189.761 211.484 191.012 211.489C191.325 211.489 191.649 211.503 191.989 211.522C192.162 211.534 192.346 211.547 192.554 211.573C192.719 211.593 192.883 211.622 193.045 211.66L193.148 211.694L193.295 211.74L193.338 211.757L193.422 211.795C193.771 211.957 194.102 212.154 194.41 212.384L195.112 212.9C195.848 213.471 196.641 213.964 197.478 214.372C197.794 214.525 198.12 214.655 198.455 214.761C198.697 214.836 198.942 214.897 199.19 214.945C199.372 214.984 199.556 215.011 199.741 215.025L199.951 215.048C200.307 215.092 200.632 215.274 200.854 215.555C201.077 215.836 201.18 216.194 201.142 216.55C201.103 216.907 200.926 217.234 200.648 217.461C200.37 217.688 200.014 217.796 199.657 217.763L199.555 217.729Z" fill="#FF9491"/>
<path d="M174.262 215.244C173.925 215.245 173.6 215.122 173.348 214.897C173.097 214.673 172.937 214.363 172.901 214.028C172.864 213.693 172.953 213.356 173.15 213.083C173.347 212.809 173.639 212.618 173.968 212.547C177.627 211.753 188.239 208.921 188.353 208.893C188.601 208.827 188.863 208.832 189.108 208.907C193.03 209.454 196.992 209.654 200.949 209.505C201.116 209.446 201.294 209.422 201.471 209.433C201.648 209.444 201.821 209.49 201.98 209.568C202.139 209.647 202.281 209.756 202.397 209.891C202.513 210.025 202.601 210.181 202.657 210.349C202.77 210.696 202.743 211.074 202.58 211.401C202.418 211.728 202.134 211.978 201.789 212.097C200.369 212.596 191.328 212.137 188.729 211.616C186.863 212.112 177.945 214.474 174.548 215.212C174.454 215.232 174.358 215.243 174.262 215.244Z" fill="#FF9491"/>
<path d="M193.991 222.762L193.765 222.741L193.382 222.672C193.172 222.624 192.966 222.562 192.764 222.487C192.4 222.349 192.049 222.18 191.714 221.982C191.113 221.618 190.549 221.198 190.028 220.727C189.533 220.285 189.063 219.817 188.62 219.324C188.401 219.081 188.188 218.836 187.98 218.588C187.768 218.329 187.577 218.094 187.356 217.792L187.924 218.301L181.451 215.116L182.708 215.282L177.118 217.023C176.83 217.119 176.526 217.157 176.223 217.134C175.921 217.111 175.626 217.029 175.355 216.89C175.085 216.752 174.845 216.561 174.65 216.329C174.454 216.097 174.307 215.828 174.217 215.539C174.126 215.249 174.095 214.944 174.124 214.642C174.153 214.34 174.242 214.046 174.386 213.779C174.53 213.512 174.726 213.276 174.962 213.086C175.198 212.895 175.47 212.753 175.761 212.669C175.875 212.634 175.99 212.608 176.107 212.59L181.895 211.736L182.174 211.695C182.515 211.645 182.863 211.719 183.154 211.904L189.419 215.491L189.555 215.569C189.735 215.672 189.883 215.821 189.986 216C190.113 216.197 190.281 216.441 190.447 216.668C190.613 216.895 190.782 217.118 190.958 217.337C191.3 217.771 191.665 218.185 192.052 218.579C192.41 218.947 192.801 219.282 193.22 219.578C193.401 219.701 193.591 219.81 193.788 219.903C193.875 219.944 193.972 219.977 194.035 220L194.099 220.027L194.324 220.062C194.672 220.118 194.986 220.307 195.198 220.589C195.411 220.872 195.505 221.225 195.463 221.576C195.42 221.926 195.243 222.247 194.969 222.47C194.694 222.692 194.345 222.8 193.993 222.771L193.991 222.762Z" fill="#FF9491"/>
<path d="M188.942 225.585L188.529 225.357C188.366 225.267 188.209 225.169 188.056 225.063C187.744 224.853 187.442 224.627 187.153 224.386C186.618 223.925 186.117 223.426 185.652 222.894C185.205 222.373 184.786 221.827 184.399 221.26C184.203 220.978 184.017 220.691 183.841 220.398L183.578 219.956L183.313 219.469L183.89 220.128L177.6 216.336C177.389 216.215 177.204 216.054 177.056 215.862C176.908 215.669 176.801 215.449 176.739 215.214C176.678 214.979 176.664 214.734 176.699 214.493C176.733 214.253 176.816 214.022 176.941 213.814C177.067 213.606 177.233 213.425 177.429 213.282C177.625 213.139 177.848 213.037 178.085 212.981C178.321 212.926 178.567 212.919 178.806 212.96C179.046 213 179.274 213.089 179.479 213.22C179.51 213.237 179.545 213.259 179.573 213.28L185.616 217.454L185.707 217.517C185.923 217.665 186.093 217.872 186.194 218.114L186.36 218.469L186.554 218.848C186.688 219.101 186.831 219.353 186.979 219.6C187.273 220.091 187.593 220.566 187.939 221.023C188.277 221.462 188.645 221.877 189.041 222.265C189.238 222.438 189.445 222.635 189.616 222.757C189.713 222.842 189.817 222.919 189.928 222.985L190.326 223.238C190.639 223.422 190.865 223.722 190.956 224.072C191.047 224.423 190.995 224.795 190.812 225.107C190.629 225.419 190.329 225.646 189.978 225.737C189.628 225.828 189.256 225.776 188.944 225.592L188.942 225.585Z" fill="#FF9491"/>
<path d="M168.688 219.329C176.81 222.801 177.434 218.56 182.298 219.163L178.032 212.313C175.576 212.88 173.024 212.88 170.568 212.313C167.037 211.507 168.298 219.187 168.298 219.187C168.439 219.219 168.574 219.268 168.703 219.334L168.688 219.329Z" fill="#FF9491"/>
<path d="M100.538 226.018H169.175C168.21 222.569 172.15 212.955 179.203 210.864L135.253 205.965L151.647 182.243L131.197 162.569C125.762 165.683 95.7789 212.49 100.538 226.018Z" fill="#404AA9"/>
<path d="M135.006 203.267C135.006 203.267 140.371 202.06 138.978 207.307C137.585 212.553 131.916 208.232 131.916 208.232L135.006 203.267Z" fill="#404AA9"/>
<path d="M121.282 209.158H58.4616C58.0109 209.158 57.5645 209.246 57.1481 209.419C56.7317 209.591 56.3533 209.844 56.0346 210.163C55.7159 210.482 55.463 210.86 55.2906 211.276C55.1181 211.693 55.0293 212.139 55.0293 212.59V212.659C55.0291 213.11 55.1177 213.556 55.2901 213.973C55.4625 214.39 55.7153 214.768 56.0341 215.087C56.3528 215.406 56.7313 215.659 57.1478 215.831C57.5643 216.004 58.0107 216.093 58.4616 216.093H121.282V209.158Z" fill="white"/>
<path d="M123.536 217.023H58.4558C57.2984 217.021 56.189 216.561 55.371 215.742C54.5531 214.923 54.0936 213.813 54.0936 212.656V212.587C54.0948 211.43 54.5548 210.321 55.3726 209.504C56.1904 208.686 57.2992 208.226 58.4558 208.225H123.536C123.783 208.225 124.019 208.323 124.193 208.497C124.368 208.671 124.465 208.907 124.465 209.154C124.465 209.4 124.368 209.637 124.193 209.811C124.019 209.985 123.783 210.083 123.536 210.083H58.4558C57.7924 210.083 57.1563 210.346 56.6873 210.815C56.2182 211.284 55.9547 211.921 55.9547 212.584V212.656C55.9547 213.319 56.2182 213.956 56.6873 214.425C57.1563 214.894 57.7924 215.157 58.4558 215.157H123.536C123.783 215.157 124.019 215.255 124.193 215.429C124.368 215.603 124.465 215.84 124.465 216.086C124.465 216.333 124.368 216.569 124.193 216.743C124.019 216.917 123.783 217.015 123.536 217.015V217.023Z" fill="#ED5C61"/>
<path d="M131.194 217.93H68.3643C67.4539 217.931 66.5809 218.293 65.9372 218.937C65.2936 219.581 64.932 220.454 64.932 221.364V221.433C64.932 221.884 65.0208 222.33 65.1933 222.747C65.3658 223.163 65.6186 223.542 65.9373 223.86C66.256 224.179 66.6344 224.432 67.0508 224.604C67.4673 224.777 67.9136 224.866 68.3643 224.866H131.192L131.194 217.93Z" fill="white"/>
<path d="M133.446 225.794H68.3658C67.2092 225.793 66.1004 225.333 65.2826 224.515C64.4648 223.697 64.0048 222.588 64.0037 221.432V221.363C64.0048 220.206 64.4648 219.097 65.2826 218.279C66.1004 217.462 67.2092 217.002 68.3658 217H133.446C133.693 217 133.929 217.098 134.103 217.273C134.278 217.447 134.375 217.683 134.375 217.93C134.375 218.176 134.278 218.412 134.103 218.587C133.929 218.761 133.693 218.859 133.446 218.859H68.3658C67.7025 218.859 67.0663 219.122 66.5973 219.591C66.1282 220.06 65.8648 220.696 65.8648 221.36V221.429C65.8648 222.092 66.1282 222.728 66.5973 223.197C67.0663 223.666 67.7025 223.93 68.3658 223.93H133.446C133.686 223.939 133.913 224.042 134.08 224.215C134.246 224.388 134.339 224.619 134.339 224.859C134.339 225.099 134.246 225.33 134.08 225.503C133.913 225.676 133.686 225.779 133.446 225.788V225.794Z" fill="#FAB620"/>
<path d="M107.322 205.187C107.075 205.189 106.834 205.105 106.641 204.95C106.448 204.795 106.314 204.579 106.262 204.337C106.211 204.095 106.244 203.842 106.356 203.622C106.469 203.401 106.654 203.227 106.881 203.127C112.436 200.658 114.057 197.295 113.207 195.057C113.126 194.78 112.991 194.521 112.81 194.297C112.628 194.072 112.404 193.885 112.15 193.747C111.897 193.609 111.618 193.523 111.331 193.494C111.043 193.465 110.753 193.492 110.476 193.576C110.205 193.664 109.91 193.641 109.657 193.511C109.403 193.382 109.211 193.157 109.123 192.886C109.035 192.615 109.058 192.32 109.187 192.066C109.317 191.812 109.542 191.62 109.813 191.532C110.894 191.2 112.063 191.302 113.071 191.817C114.078 192.332 114.845 193.219 115.209 194.291C116.339 197.244 115.062 201.844 107.756 205.094C107.619 205.155 107.472 205.186 107.322 205.187Z" fill="white"/>
<g opacity="0.63">
<path opacity="0.63" d="M49.5109 131.505C49.5109 132.728 49.8733 133.922 50.5522 134.938C51.2312 135.955 52.1963 136.747 53.3253 137.214C54.4544 137.682 55.6968 137.804 56.8954 137.566C58.0941 137.327 59.1951 136.739 60.0593 135.875C60.9234 135.011 61.5119 133.91 61.7503 132.711C61.9888 131.512 61.8664 130.27 61.3987 129.141C60.931 128.012 60.1391 127.047 59.1229 126.368C58.1068 125.689 56.9121 125.326 55.69 125.326C54.0512 125.326 52.4795 125.977 51.3207 127.136C50.1619 128.295 49.5109 129.867 49.5109 131.505Z" fill="white"/>
</g>
<path d="M95.5214 208.237C90.3913 202.438 90.3501 188.349 90.3501 188.349H110.263C110.263 188.349 110.601 202.438 105.632 208.237H95.5214Z" fill="white"/>
<path d="M159.96 120.482C159.755 120.936 159.738 121.453 159.914 121.92C160.09 122.387 160.443 122.765 160.898 122.971C161.163 123.089 161.453 123.144 161.744 123.13L164.012 126.331C164.158 126.537 164.379 126.676 164.627 126.718C164.876 126.761 165.131 126.703 165.336 126.558L165.351 126.546C165.556 126.4 165.695 126.179 165.737 125.93C165.78 125.682 165.722 125.427 165.576 125.222L163.353 122.087C163.362 122.069 163.374 122.054 163.383 122.035C163.588 121.581 163.605 121.063 163.429 120.597C163.253 120.13 162.899 119.752 162.445 119.547C161.99 119.341 161.473 119.324 161.006 119.5C160.539 119.676 160.162 120.03 159.956 120.485L159.96 120.482Z" fill="white"/>
<path d="M381.099 91.6885C381.996 91.6885 382.857 92.045 383.491 92.6796C384.126 93.3142 384.482 94.1749 384.482 95.0723" fill="white"/>
<path d="M396.29 160.581H370.921V225.729H396.29V160.581Z" fill="#DB4954"/>
<path d="M418.439 160.581H396.29V225.729H418.439V160.581Z" fill="#ED5C61"/>
<path d="M415.11 166.692H399.403V189.751H415.11V166.692Z" fill="white"/>
<path d="M412.902 169.217H401.122V173.831H412.902V169.217Z" fill="#FFE3BB"/>
<path d="M412.605 209.009C412.605 207.973 412.297 206.96 411.722 206.098C411.146 205.237 410.328 204.565 409.371 204.169C408.413 203.772 407.36 203.668 406.344 203.871C405.327 204.073 404.394 204.572 403.661 205.304C402.928 206.037 402.43 206.971 402.227 207.987C402.025 209.003 402.129 210.056 402.526 211.014C402.922 211.971 403.593 212.789 404.455 213.365C405.317 213.941 406.329 214.248 407.366 214.248C408.755 214.248 410.088 213.696 411.07 212.713C412.053 211.731 412.605 210.398 412.605 209.009Z" fill="#EEFEFF"/>
<path d="M392.562 160.581H370.413V225.729H392.562V160.581Z" fill="#759BD4"/>
<path d="M389.232 166.692H373.525V189.751H389.232V166.692Z" fill="white"/>
<path d="M387.025 169.217H375.245V173.831H387.025V169.217Z" fill="#FFE3BB"/>
<path d="M386.726 209.009C386.726 207.973 386.419 206.96 385.843 206.098C385.267 205.237 384.449 204.565 383.492 204.169C382.534 203.772 381.481 203.668 380.465 203.871C379.448 204.073 378.515 204.572 377.782 205.304C377.05 206.037 376.551 206.971 376.348 207.987C376.146 209.003 376.25 210.056 376.647 211.014C377.043 211.971 377.715 212.789 378.576 213.365C379.438 213.941 380.451 214.248 381.487 214.248C382.876 214.248 384.209 213.696 385.191 212.713C386.174 211.731 386.726 210.398 386.726 209.009Z" fill="#EEFEFF"/>
<path d="M381.487 205.245C382.748 205.246 383.966 205.702 384.918 206.529C385.87 207.356 386.492 208.499 386.668 209.747C386.705 209.504 386.724 209.258 386.726 209.012C386.726 207.622 386.174 206.29 385.191 205.307C384.209 204.325 382.876 203.773 381.487 203.773C380.097 203.773 378.765 204.325 377.782 205.307C376.8 206.29 376.248 207.622 376.248 209.012C376.25 209.258 376.269 209.504 376.305 209.747C376.482 208.499 377.103 207.356 378.055 206.529C379.007 205.702 380.226 205.246 381.487 205.245Z" fill="#404AA9"/>
<path d="M407.366 205.245C408.627 205.246 409.845 205.702 410.797 206.529C411.749 207.356 412.371 208.499 412.547 209.747C412.583 209.504 412.603 209.258 412.605 209.012C412.605 207.622 412.053 206.29 411.07 205.307C410.088 204.325 408.755 203.773 407.366 203.773C405.976 203.773 404.644 204.325 403.661 205.307C402.679 206.29 402.127 207.622 402.127 209.012C402.129 209.258 402.148 209.504 402.184 209.747C402.361 208.499 402.982 207.356 403.934 206.529C404.886 205.701 406.105 205.246 407.366 205.245Z" fill="#404AA9"/>
<path d="M370.413 160.581H345.043V225.729H370.413V160.581Z" fill="#6089C4"/>
<path d="M429.807 225.795H147.105V237.016H429.807V225.795Z" fill="#EDF2F6"/>
<path d="M317.155 222.571H203.348V225.795H317.155V222.571Z" fill="#404AA9"/>
<path d="M332.519 222.571H218.712V225.795H332.519V222.571Z" fill="#759BD4"/>
<path d="M336.509 225.795L266.16 237.016H429.809V225.795H336.509Z" fill="#C5DEEA"/>
<path d="M235.676 113.355H338.295C340.051 113.355 341.735 114.053 342.976 115.294C344.218 116.536 344.915 118.22 344.915 119.975V193.658C344.915 195.414 344.218 197.098 342.976 198.34C341.735 199.581 340.051 200.279 338.295 200.279H235.676C233.921 200.279 232.237 199.581 230.995 198.34C229.754 197.098 229.056 195.414 229.056 193.658V119.975C229.056 118.22 229.754 116.536 230.995 115.294C232.237 114.053 233.921 113.355 235.676 113.355V113.355Z" fill="#404AA9"/>
<path d="M238.782 113.355H341.401C343.157 113.355 344.841 114.053 346.082 115.294C347.324 116.536 348.021 118.22 348.021 119.975V193.658C348.021 195.414 347.324 197.098 346.082 198.34C344.841 199.581 343.157 200.279 341.401 200.279H238.782C237.026 200.279 235.343 199.581 234.101 198.34C232.859 197.098 232.162 195.414 232.162 193.658V119.975C232.162 118.22 232.859 116.536 234.101 115.294C235.343 114.053 237.026 113.355 238.782 113.355V113.355Z" fill="#759BD4"/>
<path d="M310.243 153.806H278.627C277.676 153.806 276.904 154.577 276.904 155.528C276.904 156.479 277.676 157.25 278.627 157.25H310.243C311.195 157.25 311.966 156.479 311.966 155.528C311.966 154.577 311.195 153.806 310.243 153.806Z" fill="#404AA9"/>
<path d="M255.045 188.285C255.045 188.008 254.963 187.738 254.809 187.507C254.655 187.277 254.436 187.097 254.18 186.991C253.925 186.885 253.643 186.858 253.371 186.912C253.1 186.966 252.85 187.099 252.654 187.295C252.458 187.491 252.325 187.74 252.271 188.012C252.217 188.284 252.245 188.566 252.351 188.821C252.457 189.077 252.636 189.296 252.866 189.45C253.097 189.604 253.367 189.686 253.644 189.686C254.016 189.686 254.372 189.538 254.635 189.276C254.898 189.013 255.045 188.657 255.045 188.285Z" fill="#404AA9"/>
<path d="M259.463 188.285C259.463 188.008 259.381 187.738 259.227 187.507C259.073 187.277 258.855 187.097 258.599 186.991C258.343 186.885 258.061 186.858 257.789 186.912C257.518 186.966 257.268 187.099 257.072 187.295C256.876 187.491 256.743 187.74 256.689 188.012C256.635 188.284 256.663 188.566 256.769 188.821C256.875 189.077 257.054 189.296 257.284 189.45C257.515 189.604 257.786 189.686 258.063 189.686C258.434 189.686 258.79 189.538 259.053 189.276C259.316 189.013 259.463 188.657 259.463 188.285Z" fill="#404AA9"/>
<path d="M322.544 189.687C323.318 189.687 323.945 189.06 323.945 188.287C323.945 187.513 323.318 186.886 322.544 186.886C321.771 186.886 321.144 187.513 321.144 188.287C321.144 189.06 321.771 189.687 322.544 189.687Z" fill="#404AA9"/>
<path d="M326.964 189.687C327.737 189.687 328.364 189.06 328.364 188.287C328.364 187.513 327.737 186.886 326.964 186.886C326.19 186.886 325.563 187.513 325.563 188.287C325.563 189.06 326.19 189.687 326.964 189.687Z" fill="#404AA9"/>
<path d="M322.639 154.334H280.034V156.816H322.639V154.334Z" fill="#759BD4"/>
<path d="M322.639 156.816H280.034V157.892H322.639V156.816Z" fill="#759BD4"/>
<path d="M322.639 157.89H280.034V158.966H322.639V157.89Z" fill="#749AD3"/>
<path d="M322.639 158.966H280.034V160.041H322.639V158.966Z" fill="#7499D3"/>
<path d="M322.639 160.041H280.034V161.117H322.639V160.041Z" fill="#7398D2"/>
<path d="M322.639 161.115H280.034V162.191H322.639V161.115Z" fill="#7297D2"/>
<path d="M322.639 162.191H280.034V163.266H322.639V162.191Z" fill="#7296D1"/>
<path d="M322.639 163.266H280.034V164.341H322.639V163.266Z" fill="#7195D1"/>
<path d="M322.639 164.341H280.034V165.417H322.639V164.341Z" fill="#7094D0"/>
<path d="M322.639 165.415H280.034V166.491H322.639V165.415Z" fill="#7093D0"/>
<path d="M322.639 166.491H280.034V167.566H322.639V166.491Z" fill="#6F92CF"/>
<path d="M322.639 167.566H280.034V168.642H322.639V167.566Z" fill="#6E91CF"/>
<path d="M322.639 168.64H280.034V169.716H322.639V168.64Z" fill="#6E90CE"/>
<path d="M322.639 169.716H280.034V170.791H322.639V169.716Z" fill="#6D8FCE"/>
<path d="M322.639 170.791H280.034V171.867H322.639V170.791Z" fill="#6C8ECD"/>
<path d="M322.639 171.867H280.034V172.942H322.639V171.867Z" fill="#6C8DCC"/>
<path d="M322.639 172.941H280.034V174.016H322.639V172.941Z" fill="#6B8CCC"/>
<path d="M322.639 174.016H280.034V175.092H322.639V174.016Z" fill="#6A8BCB"/>
<path d="M322.639 175.092H280.034V176.167H322.639V175.092Z" fill="#6A8ACB"/>
<path d="M322.639 176.166H280.034V177.241H322.639V176.166Z" fill="#6989CA"/>
<path d="M322.639 177.241H280.034V178.316H322.639V177.241Z" fill="#6888CA"/>
<path d="M322.639 178.317H280.034V179.392H322.639V178.317Z" fill="#6887C9"/>
<path d="M322.639 179.392H280.034V180.467H322.639V179.392Z" fill="#6786C9"/>
<path d="M322.639 180.466H280.034V181.541H322.639V180.466Z" fill="#6685C8"/>
<path d="M322.639 181.541H280.034V182.617H322.639V181.541Z" fill="#6684C8"/>
<path d="M322.639 182.617H280.034V183.692H322.639V182.617Z" fill="#6583C7"/>
<path d="M322.639 183.691H280.034V184.766H322.639V183.691Z" fill="#6482C7"/>
<path d="M322.639 184.766H280.034V185.842H322.639V184.766Z" fill="#6481C6"/>
<path d="M322.639 185.842H280.034V186.917H322.639V185.842Z" fill="#6380C5"/>
<path d="M322.639 186.917H280.034V187.993H322.639V186.917Z" fill="#627FC5"/>
<path d="M322.639 187.991H280.034V189.067H322.639V187.991Z" fill="#627EC4"/>
<path d="M322.639 189.067H280.034V190.142H322.639V189.067Z" fill="#617DC4"/>
<path d="M322.639 190.142H280.034V191.218H322.639V190.142Z" fill="#607CC3"/>
<path d="M322.639 191.216H280.034V192.291H322.639V191.216Z" fill="#607BC3"/>
<path d="M322.639 192.292H280.034V193.367H322.639V192.292Z" fill="#5F7AC2"/>
<path d="M322.639 193.367H280.034V194.442H322.639V193.367Z" fill="#5E79C2"/>
<path d="M322.639 194.442H280.034V195.518H322.639V194.442Z" fill="#5E78C1"/>
<path d="M322.639 195.516H280.034V196.592H322.639V195.516Z" fill="#5D77C1"/>
<path d="M322.639 196.592H280.034V197.667H322.639V196.592Z" fill="#5C76C0"/>
<path d="M322.639 197.667H280.034V198.743H322.639V197.667Z" fill="#5C75C0"/>
<path d="M322.639 198.741H280.034V199.817H322.639V198.741Z" fill="#5B74BF"/>
<path d="M322.639 199.817H280.034V200.892H322.639V199.817Z" fill="#5B73BF"/>
<path d="M322.639 200.892H280.034V201.968H322.639V200.892Z" fill="#5A71BE"/>
<path d="M322.639 201.968H280.034V203.043H322.639V201.968Z" fill="#5970BD"/>
<path d="M322.639 203.042H280.034V204.117H322.639V203.042Z" fill="#596FBD"/>
<path d="M322.639 204.117H280.034V205.193H322.639V204.117Z" fill="#586EBC"/>
<path d="M322.639 205.193H280.034V206.268H322.639V205.193Z" fill="#576DBC"/>
<path d="M322.639 206.267H280.034V207.342H322.639V206.267Z" fill="#576CBB"/>
<path d="M322.639 207.342H280.034V208.418H322.639V207.342Z" fill="#566BBB"/>
<path d="M322.639 208.417H280.034V209.493H322.639V208.417Z" fill="#556ABA"/>
<path d="M322.639 209.493H280.034V210.568H322.639V209.493Z" fill="#5569BA"/>
<path d="M322.639 210.567H280.034V211.642H322.639V210.567Z" fill="#5468B9"/>
<path d="M322.639 211.642H280.034V212.718H322.639V211.642Z" fill="#5367B9"/>
<path d="M322.639 212.718H280.034V213.793H322.639V212.718Z" fill="#5366B8"/>
<path d="M322.639 213.792H280.034V214.867H322.639V213.792Z" fill="#5265B8"/>
<path d="M322.639 214.867H280.034V215.943H322.639V214.867Z" fill="#5164B7"/>
<path d="M322.639 215.943H280.034V217.018H322.639V215.943Z" fill="#5163B6"/>
<path d="M322.639 217.018H280.034V218.094H322.639V217.018Z" fill="#5062B6"/>
<path d="M322.639 218.092H280.034V219.168H322.639V218.092Z" fill="#4F61B5"/>
<path d="M322.639 219.168H280.034V220.243H322.639V219.168Z" fill="#4F60B5"/>
<path d="M322.639 220.243H280.034V221.319H322.639V220.243Z" fill="#4E5FB4"/>
<path d="M322.639 221.317H280.034V222.393H322.639V221.317Z" fill="#4D5EB4"/>
<path d="M322.639 222.393H280.034V223.468H322.639V222.393Z" fill="#4D5DB3"/>
<path d="M322.639 223.468H280.034V224.543H322.639V223.468Z" fill="#4C5CB3"/>
<path d="M322.639 224.543H280.034V225.619H322.639V224.543Z" fill="#4B5BB2"/>
<path d="M322.639 225.617H280.034V225.794H322.639V225.617Z" fill="#4B5AB2"/>
<path d="M284.627 225.795H261.676C261.388 225.795 261.111 225.681 260.908 225.477C260.704 225.273 260.589 224.997 260.589 224.709C260.589 224.421 260.704 224.144 260.908 223.941C261.111 223.737 261.388 223.622 261.676 223.622H284.627C285.768 223.623 286.895 223.367 287.924 222.874C288.954 222.381 289.859 221.663 290.575 220.774C291.29 219.885 291.797 218.846 292.058 217.735C292.319 216.624 292.327 215.469 292.083 214.354L279.207 155.763C279.172 155.622 279.165 155.476 279.188 155.332C279.21 155.189 279.261 155.052 279.338 154.928C279.414 154.805 279.515 154.698 279.633 154.615C279.752 154.531 279.885 154.472 280.027 154.44C280.169 154.409 280.315 154.407 280.458 154.433C280.601 154.46 280.737 154.514 280.858 154.594C280.979 154.674 281.083 154.777 281.163 154.898C281.244 155.018 281.299 155.154 281.327 155.296L294.203 213.887C294.519 215.32 294.509 216.805 294.175 218.234C293.84 219.662 293.19 220.997 292.271 222.141C291.352 223.284 290.188 224.207 288.865 224.841C287.542 225.475 286.094 225.804 284.627 225.804V225.795Z" fill="#404AA9"/>
<path d="M214.114 197.841C215.746 197.788 218.456 195.791 219.963 199.047C221.469 202.303 214.114 197.841 214.114 197.841Z" fill="#404AA9"/>
<path d="M147.105 225.795H22.5861V237.016H147.105V225.795Z" fill="#759BD4"/>
<path d="M463.545 237.325H294.435C294.243 237.325 294.059 237.249 293.924 237.113C293.788 236.978 293.712 236.794 293.712 236.602C293.712 236.41 293.788 236.225 293.924 236.09C294.059 235.954 294.243 235.878 294.435 235.878H463.545C463.737 235.878 463.921 235.954 464.057 236.09C464.193 236.225 464.269 236.41 464.269 236.602C464.269 236.794 464.193 236.978 464.057 237.113C463.921 237.249 463.737 237.325 463.545 237.325Z" fill="#C5DEEA"/>
<path opacity="0.2" d="M106.247 188.344C106.247 188.344 107.313 182.271 100.378 175.518C93.4427 168.765 94.9022 162.56 107.861 150.331C120.819 138.102 120.637 124.779 114.431 116.384C108.225 107.99 92.894 99.0446 77.5639 110.179C62.2339 121.313 69.7165 130.255 64.0582 135.913C58.3999 141.571 45.8063 145.586 42.5211 149.419C39.2359 153.251 34.8561 171.138 55.662 175.518C76.4679 179.898 87.602 179.817 93.8076 188.344C100.013 196.871 106.247 188.344 106.247 188.344Z" fill="white"/>
<defs>
<linearGradient id="paint0_linear" x1="-22.9007" y1="227.61" x2="286.251" y2="-102.335" gradientUnits="userSpaceOnUse">
<stop stop-color="#794AFF"/>
<stop offset="1" stop-color="#4191FC"/>
</linearGradient>
<linearGradient id="paint1_linear" x1="74.4406" y1="36.1547" x2="190.5" y2="255.701" gradientUnits="userSpaceOnUse">
<stop stop-color="#F6A5A5"/>
<stop offset="1" stop-color="#C68DFF"/>
</linearGradient>
</defs>
</svg>
